HIERARCHY
ROOT Hips
{
	OFFSET -372.277008 88.828384 569.627502
	CHANNELS 6 Xposition Yposition Zposition Zrotation Yrotation Xrotation
	JOINT Spine
	{
		OFFSET 0.000000 8.814247 -2.080078
		CHANNELS 3 Zrotation Yrotation Xrotation
		JOINT Spine1
		{
			OFFSET 0.000000 8.844139 0.000000
			CHANNELS 3 Zrotation Yrotation Xrotation
			JOINT Spine2
			{
				OFFSET 0.000000 11.682266 0.000000
				CHANNELS 3 Zrotation Yrotation Xrotation
				JOINT Spine3
				{
					OFFSET 0.000000 11.746704 0.000000
					CHANNELS 3 Zrotation Yrotation Xrotation
					JOINT Neck
					{
						OFFSET 0.000000 17.658264 0.000000
						CHANNELS 3 Zrotation Yrotation Xrotation
						JOINT Neck1
						{
							OFFSET 0.000000 5.101517 0.000000
							CHANNELS 3 Zrotation Yrotation Xrotation
							JOINT Head
							{
								OFFSET 0.000000 5.101517 0.000000
								CHANNELS 3 Zrotation Yrotation Xrotation
								JOINT HeadEnd
								{
									OFFSET 0.000000 11.655090 0.000000
									CHANNELS 3 Zrotation Yrotation Xrotation
									End Site
									{
										OFFSET 0.000000 0.100006 0.000000
									}
								}
							}
						}
					}
					JOINT RightShoulder
					{
						OFFSET -2.625397 11.175217 0.000000
						CHANNELS 3 Zrotation Yrotation Xrotation
						JOINT RightArm
						{
							OFFSET 0.000000 10.434708 0.000000
							CHANNELS 3 Zrotation Yrotation Xrotation
							JOINT RightForeArm
							{
								OFFSET 0.000000 29.628418 0.000000
								CHANNELS 3 Zrotation Yrotation Xrotation
								JOINT RightHand
								{
									OFFSET 0.000000 22.857605 0.000061
									CHANNELS 3 Zrotation Yrotation Xrotation
									JOINT RightHandThumb1
									{
										OFFSET -2.867310 3.959564 2.944275
										CHANNELS 3 Zrotation Yrotation Xrotation
										JOINT RightHandThumb2
										{
											OFFSET 0.000000 3.350403 0.000000
											CHANNELS 3 Zrotation Yrotation Xrotation
											JOINT RightHandThumb3
											{
												OFFSET 0.000000 3.756516 0.000000
												CHANNELS 3 Zrotation Yrotation Xrotation
												JOINT RightHandThumb4
												{
													OFFSET 0.000000 3.147339 0.000000
													CHANNELS 3 Zrotation Yrotation Xrotation
													End Site
													{
														OFFSET 0.000000 0.100006 0.000000
													}
												}
											}
										}
									}
									JOINT RightHandIndex1
									{
										OFFSET -0.086761 10.030899 2.345276
										CHANNELS 3 Zrotation Yrotation Xrotation
										JOINT RightHandIndex2
										{
											OFFSET 0.000000 4.061096 0.000000
											CHANNELS 3 Zrotation Yrotation Xrotation
											JOINT RightHandIndex3
											{
												OFFSET 0.000000 3.248871 0.000000
												CHANNELS 3 Zrotation Yrotation Xrotation
												JOINT RightHandIndex4
												{
													OFFSET 0.000000 2.639709 0.000000
													CHANNELS 3 Zrotation Yrotation Xrotation
													End Site
													{
														OFFSET 0.000000 0.100006 0.000000
													}
												}
											}
										}
									}
									JOINT RightHandMiddle1
									{
										OFFSET 0.104095 9.502945 0.006775
										CHANNELS 3 Zrotation Yrotation Xrotation
										JOINT RightHandMiddle2
										{
											OFFSET 0.000000 4.568726 0.000000
											CHANNELS 3 Zrotation Yrotation Xrotation
											JOINT RightHandMiddle3
											{
												OFFSET 0.000000 3.654984 0.000000
												CHANNELS 3 Zrotation Yrotation Xrotation
												JOINT RightHandMiddle4
												{
													OFFSET 0.000000 2.741241 0.000000
													CHANNELS 3 Zrotation Yrotation Xrotation
													End Site
													{
														OFFSET 0.000000 0.100006 0.000000
													}
												}
											}
										}
									}
									JOINT RightHandRing1
									{
										OFFSET 0.086761 8.921707 -2.267456
										CHANNELS 3 Zrotation Yrotation Xrotation
										JOINT RightHandRing2
										{
											OFFSET 0.000000 4.061096 0.000000
											CHANNELS 3 Zrotation Yrotation Xrotation
											JOINT RightHandRing3
											{
												OFFSET 0.000000 3.654984 0.000000
												CHANNELS 3 Zrotation Yrotation Xrotation
												JOINT RightHandRing4
												{
													OFFSET 0.000000 2.741241 0.000000
													CHANNELS 3 Zrotation Yrotation Xrotation
													End Site
													{
														OFFSET 0.000000 0.100006 0.000000
													}
												}
											}
										}
									}
									JOINT RightHandPinky1
									{
										OFFSET -0.173492 7.976990 -4.467224
										CHANNELS 3 Zrotation Yrotation Xrotation
										JOINT RightHandPinky2
										{
											OFFSET 0.000000 3.350403 0.000000
											CHANNELS 3 Zrotation Yrotation Xrotation
											JOINT RightHandPinky3
											{
												OFFSET 0.000000 2.842758 0.000000
												CHANNELS 3 Zrotation Yrotation Xrotation
												JOINT RightHandPinky4
												{
													OFFSET 0.000000 2.639709 0.000000
													CHANNELS 3 Zrotation Yrotation Xrotation
													End Site
													{
														OFFSET 0.000000 0.100006 0.000000
													}
												}
											}
										}
									}
									JOINT RightForeArmEnd
									{
										OFFSET 0.000000 0.000000 0.000000
										CHANNELS 3 Zrotation Yrotation Xrotation
										End Site
										{
											OFFSET 0.000000 0.100006 0.000000
										}
									}
								}
								JOINT RightArmEnd
								{
									OFFSET 0.000000 0.000000 0.000000
									CHANNELS 3 Zrotation Yrotation Xrotation
									End Site
									{
										OFFSET 0.000000 0.100006 0.000000
									}
								}
							}
						}
					}
					JOINT LeftShoulder
					{
						OFFSET 2.625397 11.175217 0.000000
						CHANNELS 3 Zrotation Yrotation Xrotation
						JOINT LeftArm
						{
							OFFSET 0.000000 10.813629 0.000000
							CHANNELS 3 Zrotation Yrotation Xrotation
							JOINT LeftForeArm
							{
								OFFSET 0.000000 28.724777 0.000000
								CHANNELS 3 Zrotation Yrotation Xrotation
								JOINT LeftHand
								{
									OFFSET 0.644379 25.716171 -0.328796
									CHANNELS 3 Zrotation Yrotation Xrotation
									JOINT LeftHandThumb1
									{
										OFFSET 2.867310 3.959564 2.944275
										CHANNELS 3 Zrotation Yrotation Xrotation
										JOINT LeftHandThumb2
										{
											OFFSET 0.000000 3.350403 0.000000
											CHANNELS 3 Zrotation Yrotation Xrotation
											JOINT LeftHandThumb3
											{
												OFFSET 0.000000 3.756516 0.000000
												CHANNELS 3 Zrotation Yrotation Xrotation
												JOINT LeftHandThumb4
												{
													OFFSET 0.000000 3.100006 0.000000
													CHANNELS 3 Zrotation Yrotation Xrotation
													End Site
													{
														OFFSET 0.000000 0.100006 0.000000
													}
												}
											}
										}
									}
									JOINT LeftHandIndex1
									{
										OFFSET 0.086761 10.030899 2.345276
										CHANNELS 3 Zrotation Yrotation Xrotation
										JOINT LeftHandIndex2
										{
											OFFSET 0.000000 4.061096 0.000000
											CHANNELS 3 Zrotation Yrotation Xrotation
											JOINT LeftHandIndex3
											{
												OFFSET 0.000000 3.248871 0.000000
												CHANNELS 3 Zrotation Yrotation Xrotation
												JOINT LeftHandIndex4
												{
													OFFSET 0.000000 2.639709 0.000000
													CHANNELS 3 Zrotation Yrotation Xrotation
													End Site
													{
														OFFSET 0.000000 0.100006 0.000000
													}
												}
											}
										}
									}
									JOINT LeftHandMiddle1
									{
										OFFSET -0.104095 9.502945 0.006775
										CHANNELS 3 Zrotation Yrotation Xrotation
										JOINT LeftHandMiddle2
										{
											OFFSET 0.000000 4.568726 0.000000
											CHANNELS 3 Zrotation Yrotation Xrotation
											JOINT LeftHandMiddle3
											{
												OFFSET 0.000000 3.654984 0.000000
												CHANNELS 3 Zrotation Yrotation Xrotation
												JOINT LeftHandMiddle4
												{
													OFFSET 0.000000 2.741241 0.000000
													CHANNELS 3 Zrotation Yrotation Xrotation
													End Site
													{
														OFFSET 0.000000 0.100006 0.000000
													}
												}
											}
										}
									}
									JOINT LeftHandRing1
									{
										OFFSET -0.086761 8.921707 -2.267456
										CHANNELS 3 Zrotation Yrotation Xrotation
										JOINT LeftHandRing2
										{
											OFFSET 0.000000 4.061096 0.000000
											CHANNELS 3 Zrotation Yrotation Xrotation
											JOINT LeftHandRing3
											{
												OFFSET 0.000000 3.654984 0.000000
												CHANNELS 3 Zrotation Yrotation Xrotation
												JOINT LeftHandRing4
												{
													OFFSET 0.000000 2.741241 0.000000
													CHANNELS 3 Zrotation Yrotation Xrotation
													End Site
													{
														OFFSET 0.000000 0.100006 0.000000
													}
												}
											}
										}
									}
									JOINT LeftHandPinky1
									{
										OFFSET 0.173492 7.976990 -4.467224
										CHANNELS 3 Zrotation Yrotation Xrotation
										JOINT LeftHandPinky2
										{
											OFFSET 0.000000 3.350403 0.000000
											CHANNELS 3 Zrotation Yrotation Xrotation
											JOINT LeftHandPinky3
											{
												OFFSET 0.000000 2.842758 0.000000
												CHANNELS 3 Zrotation Yrotation Xrotation
												JOINT LeftHandPinky4
												{
													OFFSET 0.000000 2.639709 0.000000
													CHANNELS 3 Zrotation Yrotation Xrotation
													End Site
													{
														OFFSET 0.000000 0.100006 0.000000
													}
												}
											}
										}
									}
									JOINT LeftForeArmEnd
									{
										OFFSET 0.000000 0.000000 0.000000
										CHANNELS 3 Zrotation Yrotation Xrotation
										End Site
										{
											OFFSET 0.000000 0.100006 0.000000
										}
									}
								}
								JOINT LeftArmEnd
								{
									OFFSET 0.000000 0.000000 0.000000
									CHANNELS 3 Zrotation Yrotation Xrotation
									End Site
									{
										OFFSET 0.000000 0.100006 0.000000
									}
								}
							}
						}
					}
				}
			}
		}
	}
	JOINT RightUpLeg
	{
		OFFSET -11.289948 0.000000 0.000000
		CHANNELS 3 Zrotation Yrotation Xrotation
		JOINT RightLeg
		{
			OFFSET 0.000000 -38.200325 0.000000
			CHANNELS 3 Zrotation Yrotation Xrotation
			JOINT RightFoot
			{
				OFFSET 0.000000 -39.900856 0.000000
				CHANNELS 3 Zrotation Yrotation Xrotation
				JOINT RightToeBase
				{
					OFFSET 0.000000 -0.000003 15.261658
					CHANNELS 3 Zrotation Yrotation Xrotation
					JOINT RightToeBaseEnd
					{
						OFFSET 0.000000 -0.000001 7.370728
						CHANNELS 3 Zrotation Yrotation Xrotation
						End Site
						{
							OFFSET 0.000000 0.100000 0.000000
						}
					}
				}
				JOINT RightLegEnd
				{
					OFFSET 0.000000 0.000000 0.000000
					CHANNELS 3 Zrotation Yrotation Xrotation
					End Site
					{
						OFFSET 0.000000 0.100000 0.000000
					}
				}
			}
			JOINT RightUpLegEnd
			{
				OFFSET 0.000000 0.000000 0.000000
				CHANNELS 3 Zrotation Yrotation Xrotation
				End Site
				{
					OFFSET 0.000000 0.099998 0.000000
				}
			}
		}
	}
	JOINT LeftUpLeg
	{
		OFFSET 11.315674 0.000000 0.000000
		CHANNELS 3 Zrotation Yrotation Xrotation
		JOINT LeftLeg
		{
			OFFSET 0.000000 -38.200325 0.000000
			CHANNELS 3 Zrotation Yrotation Xrotation
			JOINT LeftFoot
			{
				OFFSET 0.000000 -39.900856 0.000000
				CHANNELS 3 Zrotation Yrotation Xrotation
				JOINT LeftToeBase
				{
					OFFSET 0.000000 -0.000003 15.261658
					CHANNELS 3 Zrotation Yrotation Xrotation
					JOINT LeftToeBaseEnd
					{
						OFFSET 0.000000 -0.000001 7.539978
						CHANNELS 3 Zrotation Yrotation Xrotation
						End Site
						{
							OFFSET 0.000000 0.100000 0.000000
						}
					}
				}
				JOINT LeftLegEnd
				{
					OFFSET 0.000000 0.000000 0.000000
					CHANNELS 3 Zrotation Yrotation Xrotation
					End Site
					{
						OFFSET 0.000000 0.100000 0.000000
					}
				}
			}
			JOINT LeftUpLegEnd
			{
				OFFSET 0.000000 0.000000 0.000000
				CHANNELS 3 Zrotation Yrotation Xrotation
				End Site
				{
					OFFSET 0.000000 0.099998 0.000000
				}
			}
		}
	}
}
MOTION
Frames: 4
Frame Time: 0.041667
-379.129852 85.331680 560.803467 -6.934737 -14.356019 -19.633707 5.481205 -1.114472 8.550260 1.424800 0.092311 2.316328 1.528696 -0.559396 12.577809 1.087201 0.912676 6.049050 -2.714781 5.456684 7.493372 0.455785 6.136664 -1.790420 -3.108359 -1.953616 -18.963231 0.000000 0.000000 0.000000 92.075185 -0.454777 13.501516 54.887127 -44.432440 9.553197 0.510672 14.606703 23.384368 7.598282 17.722599 -5.638326 10.637684 -1.840806 39.870987 -0.000011 -0.000001 -25.920004 -0.000007 -0.000003 -18.000006 0.000000 -0.000002 0.000000 13.141779 -0.000001 -9.863537 9.199249 0.000002 -0.000003 9.199246 -0.000001 -0.000005 -0.000001 -0.000001 -0.000000 12.292088 -0.000001 -10.574076 8.604466 0.000002 -0.000002 8.604465 0.000001 -0.000003 0.000001 0.000002 0.000001 14.291951 -0.000002 -8.818070 10.004366 0.000002 -0.000004 10.004368 0.000003 -0.000003 -0.000000 -0.000000 -0.000001 15.626213 -0.000004 -9.038478 10.938349 0.000001 -0.000004 10.938349 0.000002 -0.000004 -0.000001 0.000002 0.000000 0.000000 -0.000001 0.000001 0.000000 -0.000002 -0.000001 -90.224695 0.068732 9.511044 -69.418464 4.918431 -0.366266 -1.539679 -16.729806 102.944222 60.314095 8.481689 16.766784 -2.331662 0.573877 43.810100 -0.000000 -0.000002 -5.760003 -0.000001 0.000002 -4.000000 0.000001 0.000004 -0.000002 25.856031 -0.000001 23.474184 0.000000 -0.000001 0.000000 -0.000001 -0.000001 0.000000 -0.000001 -0.000001 0.000000 26.444978 0.000000 9.899191 -0.000001 0.000000 0.000006 -0.000001 -0.000001 0.000002 -0.000001 -0.000001 0.000002 26.716213 -0.000001 -5.697424 -0.000001 0.000000 0.000001 -0.000002 0.000000 0.000001 -0.000002 0.000000 0.000001 25.107982 0.000005 -22.059949 0.000000 0.000001 -0.000002 0.000000 -0.000001 0.000000 0.000000 -0.000001 0.000000 0.000001 0.000003 0.000002 -0.000002 0.000000 -0.000000 9.472187 -13.757798 21.886827 -0.110504 -0.504974 12.480590 -10.603213 -15.721704 9.754074 0.359616 0.592355 -14.661901 -0.000001 -0.000001 0.000002 -0.000001 0.000002 0.000001 -0.000000 -0.000001 0.000000 21.401607 9.542609 -2.522353 0.297818 0.553668 28.055857 -7.578872 27.532020 23.186780 3.221823 0.564730 -19.060220 0.000000 0.000002 -0.000000 0.000001 0.000001 0.000001 -0.000001 0.000000 -0.000000 
-379.126465 85.335083 560.803650 -6.935040 -14.432816 -19.681393 5.490212 -1.128758 8.558279 1.439353 0.081433 2.298654 1.568568 -0.627132 12.588208 1.105655 0.896657 6.042656 -2.749952 5.414923 7.582246 0.403776 6.085458 -1.746358 -3.142926 -1.975215 -18.874840 -0.000000 -0.000000 -0.000000 92.057180 -0.449127 13.460445 54.831000 -44.396564 9.655359 0.509020 14.584916 23.354196 7.604815 17.688653 -5.600519 10.637685 -1.840803 39.870990 -0.000008 -0.000002 -25.920010 -0.000008 -0.000002 -18.000004 0.000000 -0.000001 0.000000 13.152253 -0.000001 -9.897810 9.206579 0.000001 -0.000004 9.206579 -0.000002 -0.000004 -0.000001 -0.000002 -0.000001 12.311153 -0.000000 -10.602454 8.617809 -0.000001 -0.000004 8.617808 -0.000000 -0.000003 -0.000002 -0.000001 -0.000000 14.332942 -0.000002 -8.852898 10.033060 0.000001 -0.000004 10.033054 0.000000 -0.000004 0.000000 -0.000002 -0.000000 15.682374 -0.000002 -9.085513 10.977663 0.000001 -0.000004 10.977664 -0.000000 -0.000005 -0.000002 -0.000000 -0.000000 -0.000000 -0.000002 -0.000000 0.000000 -0.000000 -0.000000 -90.214628 0.066753 9.510315 -69.553763 4.630256 -0.099570 -1.514504 -16.800355 101.597848 57.994201 8.262307 12.876929 -2.038930 0.507410 43.957639 0.000001 -0.000003 -5.040000 0.000000 -0.000002 -3.500002 0.000002 -0.000001 0.000000 27.019376 -0.000004 23.262065 0.000000 -0.000003 -0.000002 0.000001 -0.000001 0.000000 0.000001 -0.000001 0.000000 27.472025 -0.000005 9.851240 -0.000000 -0.000000 -0.000000 -0.000001 -0.000001 0.000001 -0.000001 -0.000001 0.000001 27.547999 -0.000004 -5.635024 0.000000 -0.000001 -0.000004 0.000000 -0.000002 -0.000001 0.000000 -0.000002 -0.000001 25.673713 -0.000001 -21.872653 0.000003 -0.000001 -0.000002 0.000002 -0.000000 0.000002 0.000002 -0.000000 0.000002 -0.000005 -0.000003 -0.000006 -0.000001 0.000002 0.000000 9.470337 -13.720458 21.939526 -0.110617 -0.505197 12.476510 -10.607981 -15.692725 9.760422 0.348200 0.589268 -14.664594 0.000000 -0.000003 0.000000 -0.000001 0.000002 0.000002 -0.000000 0.000000 0.000000 21.429148 9.558305 -2.440721 0.297780 0.553715 28.057053 -7.590300 27.565003 23.177940 3.224984 0.566196 -19.056591 -0.000000 0.000002 0.000000 -0.000002 0.000002 0.000001 0.000001 -0.000000 0.000000 
-379.123352 85.338516 560.803101 -6.935834 -14.508546 -19.726305 5.509976 -1.144512 8.569270 1.450899 0.072433 2.279911 1.610520 -0.694020 12.595402 1.115914 0.878347 6.037521 -2.807554 5.381165 7.647032 0.348763 6.022079 -1.712766 -3.177610 -1.997250 -18.787103 -0.000000 0.000000 0.000000 92.006965 -0.435936 13.422681 54.814372 -44.364520 9.761589 0.505474 14.585594 23.321930 7.629309 17.533785 -5.630668 10.637685 -1.840802 39.870987 -0.000008 -0.000001 -25.920006 -0.000007 0.000000 -18.000009 -0.000000 -0.000001 0.000000 13.121687 0.000002 -9.852171 9.185184 -0.000001 -0.000004 9.185184 -0.000000 -0.000005 -0.000000 -0.000002 -0.000001 12.307489 -0.000000 -10.562258 8.615242 0.000002 -0.000003 8.615246 -0.000001 -0.000003 -0.000000 0.000001 0.000001 14.395032 0.000003 -8.835476 10.076525 -0.000002 -0.000004 10.076523 0.000001 -0.000003 -0.000002 -0.000001 -0.000001 15.804566 0.000002 -9.104734 11.063197 0.000001 -0.000005 11.063193 0.000002 -0.000003 -0.000001 0.000001 0.000001 -0.000000 0.000003 -0.000001 -0.000001 -0.000000 -0.000000 -90.213637 0.066294 9.508941 -69.652719 4.530775 0.223674 -1.445795 -17.069310 99.819403 55.517769 6.921791 9.331757 -2.038926 0.507413 43.957643 0.000001 0.000001 -5.039997 -0.000001 0.000002 -3.499999 0.000002 0.000003 -0.000001 27.118301 -0.000003 22.944299 -0.000002 0.000000 0.000002 -0.000001 0.000000 -0.000001 -0.000001 0.000000 -0.000001 27.780995 -0.000002 9.453250 -0.000000 -0.000001 -0.000002 0.000000 0.000000 -0.000000 0.000000 0.000000 -0.000000 28.193933 -0.000004 -6.169331 -0.000000 -0.000001 0.000000 -0.000000 0.000001 0.000002 -0.000000 0.000001 0.000002 26.609473 0.000001 -22.636078 0.000002 -0.000001 -0.000000 0.000000 -0.000001 -0.000001 0.000000 -0.000001 -0.000001 -0.000000 0.000001 -0.000002 -0.000001 -0.000001 -0.000000 9.469486 -13.684613 21.991595 -0.110726 -0.505454 12.469543 -10.613853 -15.663587 9.769541 0.336265 0.586110 -14.671916 0.000000 0.000000 -0.000000 0.000000 -0.000000 -0.000001 -0.000000 -0.000003 0.000002 21.457652 9.574648 -2.363274 0.297720 0.553712 28.058306 -7.600341 27.596901 23.170594 3.227373 0.567271 -19.036622 0.000000 0.000003 0.000000 0.000001 0.000000 0.000001 0.000000 -0.000000 0.000000 
-379.119781 85.341873 560.801208 -6.937123 -14.585200 -19.761189 5.529433 -1.161443 8.575636 1.472847 0.056473 2.258942 1.652671 -0.766071 12.600506 1.127261 0.850121 6.034384 -2.891997 5.362434 7.680915 0.286326 5.950524 -1.694463 -3.215490 -2.011100 -18.696021 -0.000000 0.000000 -0.000000 91.914436 -0.413572 13.408704 54.826519 -44.351861 9.872269 0.497652 14.610721 23.293899 7.673516 17.330186 -5.680375 10.637686 -1.840808 39.870990 -0.000009 -0.000001 -25.920013 -0.000008 -0.000003 -18.000007 0.000000 -0.000002 0.000000 13.065861 -0.000003 -9.810265 9.146100 0.000002 -0.000004 9.146101 -0.000001 -0.000004 -0.000001 0.000001 0.000000 12.284648 -0.000002 -10.528182 8.599253 -0.000000 -0.000003 8.599253 -0.000001 -0.000003 -0.000002 0.000002 0.000001 14.452291 -0.000004 -8.830229 10.116602 -0.000002 -0.000004 10.116604 0.000001 -0.000004 0.000000 -0.000001 -0.000001 15.936628 -0.000003 -9.141857 11.155640 0.000003 -0.000004 11.155636 0.000001 -0.000005 0.000000 0.000000 0.000000 0.000000 0.000001 -0.000000 0.000001 0.000003 -0.000003 -90.228042 0.068328 9.487611 -69.704512 4.579472 0.577802 -1.340156 -17.405702 97.531256 53.565342 6.965650 7.012098 -1.746534 0.439452 44.105544 0.000001 -0.000002 -4.319997 0.000000 0.000002 -3.000004 -0.000001 0.000003 -0.000001 28.479003 -0.000001 20.979402 -0.000001 -0.000000 0.000002 -0.000001 -0.000000 0.000002 -0.000001 -0.000000 0.000002 28.851030 -0.000004 7.920381 -0.000001 0.000000 -0.000000 0.000000 0.000001 0.000000 0.000000 0.000001 0.000000 28.880174 -0.000002 -7.708417 0.000000 0.000000 -0.000002 -0.000001 0.000000 -0.000002 -0.000001 0.000000 -0.000002 26.833407 0.000004 -24.508283 -0.000001 0.000000 0.000000 -0.000001 -0.000000 -0.000001 -0.000001 -0.000000 -0.000001 0.000001 0.000001 -0.000000 0.000001 0.000002 -0.000000 9.470059 -13.649188 22.039391 -0.110831 -0.505747 12.451832 -10.621742 -15.633188 9.785550 0.324130 0.582972 -14.677405 -0.000000 -0.000003 0.000000 -0.000002 0.000002 0.000002 0.000000 0.000000 0.000001 21.491149 9.596027 -2.299058 0.297638 0.553662 28.062584 -7.609299 27.625221 23.163210 3.228628 0.567799 -19.028842 -0.000000 0.000002 0.000000 0.000000 0.000004 0.000001 -0.000000 0.000000 -0.000000 
